# xmcd
#
# Track frame offsets:
#	150
#	15985
#	38635
#	52439
#	71130
#	93309
#	114035
#	128284
#	141738
#	157529
#
# Disc length: 2335 seconds
# Revision: 0
# Processed by: cddbd v1.5.2PL0 Copyright (c) Steve Scherf et al.
# Submitted via: dBpowerAMP V12.0
#
DISCID=79091d0a
DTITLE=Jan Condon - This Is Me
DYEAR=1900
DGENRE=Country
TTITLE0=Redneck Woman
TTITLE1=I Can't Make You Love Me
TTITLE2=My Pinto Pony and Me
TTITLE3=I Heard It Through The Grapevine
TTITLE4=The Woman In Me
TTITLE5=Blue Misty Mountain
TTITLE6=Freightman
TTITLE7=Hurt Me
TTITLE8=Runaway
TTITLE9=Piece Of My Heart
EXTD=
EXTT0=
EXTT1=
EXTT2=
EXTT3=
EXTT4=
EXTT5=
EXTT6=
EXTT7=
EXTT8=
EXTT9=
PLAYORDER=
